<?xml version="1.0" standalone="no"?>
<!DOCTYPE svg PUBLIC "-//W3C//DTD SVG 20010904//EN"
 "http://www.w3.org/TR/2001/REC-SVG-20010904/DTD/svg10.dtd">
<svg version="1.0" xmlns="http://www.w3.org/2000/svg"
 width="2000.000000pt" height="2000.000000pt" viewBox="0 0 2000.000000 2000.000000"
 preserveAspectRatio="xMidYMid meet">

<g transform="translate(0.000000,2000.000000) scale(0.100000,-0.100000)"
fill="current" stroke="current">
<path d="M9580 19989 c-687 -32 -1287 -117 -1938 -274 -1437 -348 -2769 -1006
-3925 -1938 -511 -412 -1091 -994 -1508 -1512 -1134 -1407 -1866 -3108 -2113
-4907 -66 -476 -89 -822 -90 -1343 -1 -491 19 -820 74 -1260 243 -1913 1016
-3687 2256 -5175 442 -530 1026 -1089 1589 -1519 1415 -1083 3063 -1757 4835
-1980 833 -105 1647 -105 2480 0 1801 226 3463 915 4904 2032 509 394 1066
929 1490 1431 1042 1232 1770 2698 2122 4276 111 494 178 962 220 1520 24 312
24 1008 0 1320 -124 1656 -584 3118 -1414 4500 -423 704 -878 1285 -1482 1891
-359 360 -611 585 -941 841 -1236 956 -2625 1593 -4160 1907 -777 159 -1628
226 -2399 190z m810 -1369 c1168 -52 2308 -338 3345 -839 735 -356 1396 -796
2015 -1345 302 -268 717 -703 976 -1026 1003 -1246 1640 -2744 1839 -4325 43
-342 56 -553 62 -957 9 -617 -22 -1029 -123 -1618 -364 -2137 -1565 -4097
-3315 -5410 -1149 -862 -2454 -1415 -3850 -1630 -428 -66 -718 -90 -1183 -97
-373 -6 -851 9 -870 28 -6 5 2 9 22 9 17 0 102 9 189 20 557 71 1165 229 1708
443 972 384 1848 975 2569 1735 1522 1605 2215 3789 1900 5992 -177 1240 -703
2454 -1489 3435 -846 1055 -1944 1841 -3206 2293 -450 162 -961 286 -1439 351
-382 52 -449 56 -980 56 -455 -1 -525 -3 -705 -23 -670 -75 -1161 -187 -1765
-404 -447 -161 -971 -420 -1390 -687 -1178 -752 -2128 -1850 -2696 -3118 -304
-678 -506 -1417 -586 -2143 -12 -111 -13 -113 -19 -60 -4 30 -13 198 -20 373
-28 670 28 1377 161 2032 258 1273 781 2436 1566 3481 495 658 1089 1250 1744
1736 1613 1196 3541 1787 5540 1698z m-1773 -4534 c698 -63 1406 -259 2053
-568 1256 -600 2288 -1642 2873 -2901 248 -533 417 -1095 501 -1662 51 -349
60 -483 60 -900 1 -417 -8 -548 -60 -900 -255 -1729 -1265 -3276 -2752 -4219
-217 -137 -577 -334 -671 -367 -23 -8 -22 -6 9 19 1078 850 1818 2046 2085
3370 82 408 109 693 109 1147 0 442 -24 701 -100 1100 -113 588 -344 1208
-644 1735 -94 163 -336 526 -445 665 -471 603 -1035 1094 -1680 1464 -910 523
-1929 783 -2970 758 -395 -10 -655 -38 -1020 -112 -510 -103 -948 -253 -1405
-481 -782 -390 -1423 -912 -1973 -1604 -26 -33 -27 -34 -17 -7 5 16 44 94 84
175 680 1339 1866 2402 3267 2926 535 200 1130 333 1639 366 96 6 189 13 205
15 76 8 697 -5 852 -19z"/>
</g>
</svg>
